<svg xmlns="http://www.w3.org/2000/svg" width="220.303" height="220" viewBox="0 0 220.303 220">
  <g id="Grupo_19" data-name="Grupo 19" transform="translate(564.832 279.803) rotate(90)">
    <path id="Trazado_116" data-name="Trazado 116" d="M-241.172,347.372l.52,14.226-1.692.713-9.832-10.3,1.6-.672,6.692,7.16,1.806,2.107-.235-2.745-.455-9.811Z" transform="translate(34.287 3.528)" fill="#f59401"/>
    <path id="Trazado_117" data-name="Trazado 117" d="M-240.538,346.194a6.21,6.21,0,0,1,3.382-.016,5.591,5.591,0,0,1,2.665,1.757,8.174,8.174,0,0,1,1.652,3.344,8.182,8.182,0,0,1,.186,3.722,5.61,5.61,0,0,1-1.475,2.833,6.212,6.212,0,0,1-2.963,1.634,6.189,6.189,0,0,1-3.382.014,5.587,5.587,0,0,1-2.665-1.755,8.158,8.158,0,0,1-1.649-3.344,8.161,8.161,0,0,1-.186-3.725,5.583,5.583,0,0,1,1.472-2.83A6.176,6.176,0,0,1-240.538,346.194Zm.381,1.463a4.369,4.369,0,0,0-2.145,1.212,4.112,4.112,0,0,0-1.042,2.167,6.919,6.919,0,0,0,.2,2.918A6.925,6.925,0,0,0-241.9,356.6a4.089,4.089,0,0,0,1.965,1.385,4.37,4.37,0,0,0,2.463.018,4.349,4.349,0,0,0,2.154-1.217,4.126,4.126,0,0,0,1.031-2.165,6.921,6.921,0,0,0-.195-2.918,6.9,6.9,0,0,0-1.251-2.645,4.133,4.133,0,0,0-1.954-1.389A4.361,4.361,0,0,0-240.157,347.658Z" transform="translate(43.056 1.766)" fill="#f59401"/>
    <path id="Trazado_118" data-name="Trazado 118" d="M-234.988,356.717l7.577-.849.168,1.5-9.179,1.033-1.486-13.229,1.6-.182Z" transform="translate(51.994 0.575)" fill="#f59401"/>
    <path id="Trazado_119" data-name="Trazado 119" d="M-221.588,344.529l-4.827,13.39-1.833.031-5.278-13.229,1.735-.027,3.536,9.141.89,2.626.8-2.635,3.238-9.269Z" transform="translate(57.432 0)" fill="#f59401"/>
    <path id="Trazado_120" data-name="Trazado 120" d="M-226.806,357.946l1.753-13.2,9.258,1.228-.2,1.5-7.658-1.015-.565,4.258,5.957.791-.2,1.5-5.957-.791-.589,4.44,7.958,1.056-.2,1.5Z" transform="translate(65.772 0.276)" fill="#f59401"/>
    <path id="Trazado_121" data-name="Trazado 121" d="M-212.664,347.148a4.867,4.867,0,0,1,2.869,1.883,3.541,3.541,0,0,1,.43,3.068,3.387,3.387,0,0,1-1.941,2.362,5.06,5.06,0,0,1-3.424.09l-.164.058-3.149-.87-1.472,5.327-1.555-.43,3.545-12.83Zm-1.692,6.042a3.235,3.235,0,0,0,2.212-.007A2.224,2.224,0,0,0-211,351.648a2.222,2.222,0,0,0-.195-1.9,3.206,3.206,0,0,0-1.891-1.141l-3.288-.91-1.268,4.587Zm.809.558,2.447,7.644-1.844-.509-2.14-6.64Z" transform="translate(72.891 1.585)" fill="#f59401"/>
    <path id="Trazado_122" data-name="Trazado 122" d="M-213.279,359.287l10.717-9.446,1.7.881-1.526,14.2-1.524-.789,1.19-10.555.3-1.936-.036-.018-1.342,1.327-7.971,7.118Zm3.953-2.113.695-1.342,6.324,3.27-.695,1.342Z" transform="translate(82.56 6.593)" fill="#f59401"/>
    <path id="Trazado_123" data-name="Trazado 123" d="M-205.165,363.018l6.248,4.368-.867,1.239-7.57-5.291,7.624-10.912,1.324.923Z" transform="translate(89.913 9.796)" fill="#f59401"/>
    <path id="Trazado_124" data-name="Trazado 124" d="M-190.241,359.464l-9.309,9.516-1.154-1.129,9.312-9.513Z" transform="translate(98.165 17.137)" fill="#f59401"/>
    <path id="Trazado_125" data-name="Trazado 125" d="M-181.8,368.842l-10.293,8.442-1.266-1.544,3.362-9.959,1.04-2.676-.013-.016-1.508,1.34-7.268,5.961-.973-1.185,10.293-8.442,1.266,1.544-3.344,9.917-1.071,2.732.011.016,1.524-1.354,7.268-5.961Z" transform="translate(100.626 20.147)" fill="#f59401"/>
    <path id="Trazado_126" data-name="Trazado 126" d="M-182.608,367.962l-11.151,7.268-.881-1.351,11.151-7.27Z" transform="translate(105.692 27.401)" fill="#f59401"/>
    <path id="Trazado_127" data-name="Trazado 127" d="M-186.049,382.818a5.627,5.627,0,0,1-2.284-.193,5.256,5.256,0,0,1-1.943-1.078,6.143,6.143,0,0,1-1.428-1.865,6.192,6.192,0,0,1-.749-3.3,5.6,5.6,0,0,1,1.138-2.983,8.174,8.174,0,0,1,2.9-2.335,8.161,8.161,0,0,1,3.6-.988,5.6,5.6,0,0,1,3.081.825,6.122,6.122,0,0,1,2.219,2.5,6.906,6.906,0,0,1,.733,2.207,4.649,4.649,0,0,1-.148,2.012,5.11,5.11,0,0,1-1,1.791l-1.389-1.08a3.72,3.72,0,0,0,.97-1.934,3.666,3.666,0,0,0-.457-2.2,4.44,4.44,0,0,0-1.649-1.831,4.264,4.264,0,0,0-2.355-.6,6.6,6.6,0,0,0-2.83.8,6.924,6.924,0,0,0-2.311,1.8,4.085,4.085,0,0,0-.926,2.216,4.366,4.366,0,0,0,.518,2.409,3.991,3.991,0,0,0,1.656,1.757,3.782,3.782,0,0,0,2.456.354Z" transform="translate(108.391 31.706)" fill="#f59401"/>
    <path id="Trazado_128" data-name="Trazado 128" d="M-177.45,377.248l-12.424,4.776-.58-1.5,12.424-4.78Z" transform="translate(110.886 38.735)" fill="#f59401"/>
    <path id="Trazado_129" data-name="Trazado 129" d="M-175.536,383.795a6.192,6.192,0,0,1,.018,3.382,5.6,5.6,0,0,1-1.755,2.667,8.208,8.208,0,0,1-3.341,1.654,8.194,8.194,0,0,1-3.725.188,5.583,5.583,0,0,1-2.83-1.472,6.192,6.192,0,0,1-1.638-2.96,6.212,6.212,0,0,1-.016-3.382,5.589,5.589,0,0,1,1.752-2.667,8.146,8.146,0,0,1,3.344-1.652,8.156,8.156,0,0,1,3.722-.191,5.6,5.6,0,0,1,2.833,1.472A6.189,6.189,0,0,1-175.536,383.795Zm-1.463.381a4.372,4.372,0,0,0-1.215-2.142,4.109,4.109,0,0,0-2.167-1.04,6.92,6.92,0,0,0-2.918.2,6.928,6.928,0,0,0-2.647,1.253,4.111,4.111,0,0,0-1.383,1.965,4.372,4.372,0,0,0-.016,2.463,4.369,4.369,0,0,0,1.219,2.154,4.123,4.123,0,0,0,2.165,1.029,6.889,6.889,0,0,0,2.918-.2A6.933,6.933,0,0,0-178.4,388.6a4.128,4.128,0,0,0,1.387-1.954A4.351,4.351,0,0,0-177,384.176Z" transform="translate(112.629 43.062)" fill="#f59401"/>
    <path id="Trazado_130" data-name="Trazado 130" d="M-183.615,396.662l-1.672.078-.316-6.647,1.672-.081Z" transform="translate(116.908 56.448)" fill="#f59401"/>
    <path id="Trazado_131" data-name="Trazado 131" d="M-175.474,409.839l-12.474-6.86.258-1.818,13.89-3.146-.242,1.719-9.583,2.066-2.734.468,2.476,1.206,8.653,4.646Z" transform="translate(113.997 66.379)" fill="#f59401"/>
    <path id="Trazado_132" data-name="Trazado 132" d="M-175.961,412.157a6.218,6.218,0,0,1-1.726,2.909,5.6,5.6,0,0,1-2.875,1.385,8.2,8.2,0,0,1-3.716-.3,8.181,8.181,0,0,1-3.292-1.753,5.591,5.591,0,0,1-1.672-2.718,6.228,6.228,0,0,1,.119-3.382,6.217,6.217,0,0,1,1.726-2.909A5.612,5.612,0,0,1-184.519,404a8.165,8.165,0,0,1,3.716.3,8.169,8.169,0,0,1,3.29,1.752,5.591,5.591,0,0,1,1.672,2.718A6.209,6.209,0,0,1-175.961,412.157Zm-1.452-.428a4.359,4.359,0,0,0,.061-2.461,4.124,4.124,0,0,0-1.322-2.008,6.929,6.929,0,0,0-2.606-1.331,6.882,6.882,0,0,0-2.911-.285,4.087,4.087,0,0,0-2.2.973,4.377,4.377,0,0,0-1.28,2.1,4.362,4.362,0,0,0-.063,2.472,4.14,4.14,0,0,0,1.327,2,6.936,6.936,0,0,0,2.6,1.331,6.924,6.924,0,0,0,2.911.287,4.151,4.151,0,0,0,2.2-.966A4.345,4.345,0,0,0-177.413,411.729Z" transform="translate(112.168 73.689)" fill="#f59401"/>
    <path id="Trazado_133" data-name="Trazado 133" d="M-187.79,412.14l-3.162,6.938-1.376-.628,3.83-8.406,12.115,5.522-.67,1.468Z" transform="translate(108.561 81.309)" fill="#f59401"/>
    <path id="Trazado_134" data-name="Trazado 134" d="M-184.916,428.216l-8.843-11.156.941-1.575,14.022,2.481-.89,1.488-9.632-1.806-2.7-.627,1.818,2.071,6.174,7.635Z" transform="translate(106.785 88.06)" fill="#f59401"/>
    <path id="Trazado_135" data-name="Trazado 135" d="M-192.379,419.179l10.4,8.31-5.829,7.3-1.183-.946,4.823-6.035-3.355-2.68-3.754,4.693-1.181-.944,3.754-4.7-3.5-2.795-5.013,6.268-1.181-.944Z" transform="translate(101.028 92.645)" fill="#f59401"/>
    <path id="Trazado_136" data-name="Trazado 136" d="M-194.969,432.6l-7.815-1.84,1.387-1.318,6.795,1.584Zm5.2,4.155a4.873,4.873,0,0,1-3.09,1.49,3.532,3.532,0,0,1-2.851-1.212,3.376,3.376,0,0,1-1.026-2.88,5.066,5.066,0,0,1,1.688-2.981l.034-.17,2.367-2.252-3.808-4,1.17-1.112,9.173,9.648Zm-4.307-4.561a3.215,3.215,0,0,0-1.132,1.9,2.207,2.207,0,0,0,.724,1.773,2.211,2.211,0,0,0,1.735.814,3.215,3.215,0,0,0,1.952-1.033l2.47-2.349-3.279-3.451Z" transform="translate(95.585 98.175)" fill="#f59401"/>
    <path id="Trazado_137" data-name="Trazado 137" d="M-199.83,429.011l2.609,14.045-1.629,1.011-11.4-8.592,1.457-.905,8.453,6.436,1.508,1.248.034-.022-.448-1.833-2.021-10.495Zm-.215,4.475.8,1.286-6.051,3.752-.8-1.284Z" transform="translate(86.315 104.847)" fill="#f59401"/>
    <path id="Trazado_138" data-name="Trazado 138" d="M-207.62,434.484l-6.956,3.122-.619-1.38,8.429-3.781,5.446,12.146-1.472.661Z" transform="translate(80.182 109.109)" fill="#f59401"/>
    <path id="Trazado_139" data-name="Trazado 139" d="M-216.684,448.705l-3.368-12.879,1.562-.408,3.366,12.877Z" transform="translate(74.154 112.798)" fill="#f59401"/>
    <path id="Trazado_140" data-name="Trazado 140" d="M-224.73,450.8l-1.927-13.173,1.977-.289,6.8,8.014,1.759,2.272.02,0-.372-1.983-1.36-9.3,1.517-.222,1.927,13.171-1.977.289-6.772-7.976-1.788-2.328-.02,0,.374,2.006,1.363,9.3Z" transform="translate(65.957 113.665)" fill="#f59401"/>
    <path id="Trazado_141" data-name="Trazado 141" d="M-228.982,450.231l-.473-13.3,1.614-.058.473,13.305Z" transform="translate(62.485 114.6)" fill="#f59401"/>
    <path id="Trazado_142" data-name="Trazado 142" d="M-236.248,439.954a5.588,5.588,0,0,1,1.338-1.86,5.248,5.248,0,0,1,1.925-1.114,6.172,6.172,0,0,1,2.331-.267,6.163,6.163,0,0,1,3.214,1.055,5.571,5.571,0,0,1,1.974,2.508,8.173,8.173,0,0,1,.511,3.693,8.214,8.214,0,0,1-1,3.592,5.6,5.6,0,0,1-2.293,2.219,6.117,6.117,0,0,1-3.285.621,7,7,0,0,1-2.27-.509,4.624,4.624,0,0,1-1.649-1.163,5.077,5.077,0,0,1-1.024-1.777l1.641-.636a3.722,3.722,0,0,0,1.161,1.826,3.67,3.67,0,0,0,2.122.74,4.434,4.434,0,0,0,2.418-.473,4.269,4.269,0,0,0,1.723-1.714,6.573,6.573,0,0,0,.766-2.837,6.931,6.931,0,0,0-.35-2.907,4.137,4.137,0,0,0-1.425-1.936,4.364,4.364,0,0,0-2.333-.793,4.034,4.034,0,0,0-2.36.518,3.782,3.782,0,0,0-1.564,1.927Z" transform="translate(53.768 114.385)" fill="#f59401"/>
    <path id="Trazado_143" data-name="Trazado 143" d="M-239.48,449.325l2.279-13.115,1.591.276-2.281,13.117Z" transform="translate(50.043 113.781)" fill="#f59401"/>
    <path id="Trazado_144" data-name="Trazado 144" d="M-242.026,448.434a6.226,6.226,0,0,1-2.913-1.721,5.62,5.62,0,0,1-1.389-2.873,8.159,8.159,0,0,1,.3-3.716,8.167,8.167,0,0,1,1.746-3.294,5.592,5.592,0,0,1,2.716-1.676,6.184,6.184,0,0,1,3.382.114,6.2,6.2,0,0,1,2.911,1.719,5.6,5.6,0,0,1,1.389,2.873,8.211,8.211,0,0,1-.3,3.72,8.153,8.153,0,0,1-1.748,3.29,5.574,5.574,0,0,1-2.716,1.676A6.2,6.2,0,0,1-242.026,448.434Zm.424-1.452a4.364,4.364,0,0,0,2.463.054,4.076,4.076,0,0,0,2-1.324,6.947,6.947,0,0,0,1.329-2.606,6.924,6.924,0,0,0,.28-2.913,4.111,4.111,0,0,0-.977-2.2,4.351,4.351,0,0,0-2.107-1.275,4.34,4.34,0,0,0-2.472-.058,4.134,4.134,0,0,0-2,1.327,6.977,6.977,0,0,0-1.327,2.606,6.923,6.923,0,0,0-.28,2.913,4.126,4.126,0,0,0,.966,2.194A4.366,4.366,0,0,0-241.6,446.982Z" transform="translate(41.422 112.242)" fill="#f59401"/>
    <path id="Trazado_145" data-name="Trazado 145" d="M-253.664,434.315l.791-1.475,5.865,3.146-.791,1.475Z" transform="translate(32.44 109.599)" fill="#f59401"/>
    <path id="Trazado_146" data-name="Trazado 146" d="M-263.73,434.11l12.315-7.14,1.423,1.156-4.478,13.523-1.347-1.1,3.18-9.271,1.011-2.586-2.313,1.5-8.447,5.011Z" transform="translate(19.947 102.314)" fill="#f59401"/>
    <path id="Trazado_147" data-name="Trazado 147" d="M-265.9,433.376a6.2,6.2,0,0,1-1.607-2.978,5.572,5.572,0,0,1,.291-3.178,8.169,8.169,0,0,1,2.169-3.032,8.192,8.192,0,0,1,3.2-1.918,5.59,5.59,0,0,1,3.191-.036,6.2,6.2,0,0,1,2.837,1.842,6.191,6.191,0,0,1,1.607,2.976,5.576,5.576,0,0,1-.291,3.178,8.181,8.181,0,0,1-2.169,3.03,8.206,8.206,0,0,1-3.2,1.923,5.609,5.609,0,0,1-3.191.034A6.226,6.226,0,0,1-265.9,433.376Zm1.112-1.026a4.361,4.361,0,0,0,2.082,1.318,4.1,4.1,0,0,0,2.4-.1,6.94,6.94,0,0,0,2.481-1.549,6.92,6.92,0,0,0,1.744-2.349,4.131,4.131,0,0,0,.3-2.387,4.368,4.368,0,0,0-1.147-2.178,4.344,4.344,0,0,0-2.089-1.327,4.134,4.134,0,0,0-2.4.11,6.907,6.907,0,0,0-2.481,1.548,6.94,6.94,0,0,0-1.743,2.349,4.149,4.149,0,0,0-.3,2.378A4.37,4.37,0,0,0-264.788,432.349Z" transform="translate(15.123 96.168)" fill="#f59401"/>
    <path id="Trazado_148" data-name="Trazado 148" d="M-260.854,423.371l-4.33-6.275,1.246-.861,5.244,7.6L-269.65,431.4l-.917-1.329Z" transform="translate(11.462 88.991)" fill="#f59401"/>
    <path id="Trazado_149" data-name="Trazado 149" d="M-275.218,415.666l14.112-1.871.87,1.618-9.321,10.766-.822-1.526,6.492-7.344,1.925-2-2.709.5-9.724,1.387Z" transform="translate(5.69 85.963)" fill="#f59401"/>
    <path id="Trazado_150" data-name="Trazado 150" d="M-261.769,415.592l-12.471,4.655-3.265-8.749,1.416-.529,2.7,7.236,4.025-1.5-2.1-5.632,1.416-.529,2.1,5.632,4.2-1.564-2.806-7.521,1.416-.529Z" transform="translate(2.851 76.985)" fill="#f59401"/>
    <path id="Trazado_151" data-name="Trazado 151" d="M-278.586,408.678a4.861,4.861,0,0,1,.314-3.418,3.537,3.537,0,0,1,2.51-1.82,3.384,3.384,0,0,1,2.994.6,5.054,5.054,0,0,1,1.688,2.983l.128.114.71,3.191,5.4-1.2.349,1.575L-277.49,413.6Zm6.127-1.345a3.211,3.211,0,0,0-1.042-1.947,2.217,2.217,0,0,0-1.894-.291,2.215,2.215,0,0,0-1.591,1.067,3.2,3.2,0,0,0-.119,2.205l.74,3.328,4.648-1.035Zm.114-.977,5.6-5.751.415,1.869-4.856,5.009Z" transform="translate(1.307 69.595)" fill="#f59401"/>
    <path id="Trazado_152" data-name="Trazado 152" d="M-266.379,403.832l-13.395-4.968-.029-1.916,13.227-5.379.027,1.714-9.861,3.953-1.844.654v.04l1.8.556,10.044,3.651Zm-3.731-2.483-1.513.025-.117-7.118,1.515-.025Z" transform="translate(0 58.379)" fill="#f59401"/>
    <path id="Trazado_153" data-name="Trazado 153" d="M-267.753,393.686l.9-7.57,1.5.177-1.087,9.175-13.22-1.564.19-1.6Z" transform="translate(0.178 51.612)" fill="#f59401"/>
    <path id="Trazado_154" data-name="Trazado 154" d="M-277.492,379.588l12.781,3.727-.453,1.549-12.779-3.725Z" transform="translate(2.31 43.51)" fill="#f59401"/>
    <path id="Trazado_155" data-name="Trazado 155" d="M-272.937,372.706l12.292,5.11-.766,1.844-10.369,1.717-2.851.343-.007.018,1.891.7,8.68,3.608-.589,1.416-12.292-5.112.769-1.842,10.322-1.717,2.916-.338.007-.018-1.912-.708-8.677-3.608Z" transform="translate(3.543 34.969)" fill="#f59401"/>
    <path id="Trazado_156" data-name="Trazado 156" d="M-273.1,369.676l11.654,6.432-.78,1.414-11.654-6.434Z" transform="translate(7.351 31.209)" fill="#f59401"/>
    <path id="Trazado_157" data-name="Trazado 157" d="M-258.879,368.136a5.58,5.58,0,0,1,.9,2.107,5.2,5.2,0,0,1-.038,2.223,6.159,6.159,0,0,1-.975,2.138,6.2,6.2,0,0,1-2.561,2.21,5.606,5.606,0,0,1-3.167.4,8.21,8.21,0,0,1-3.427-1.468,8.179,8.179,0,0,1-2.561-2.709,5.6,5.6,0,0,1-.719-3.111,6.125,6.125,0,0,1,1.165-3.133,6.947,6.947,0,0,1,1.6-1.685,4.62,4.62,0,0,1,1.847-.814,5.117,5.117,0,0,1,2.051.04l-.3,1.735a3.685,3.685,0,0,0-2.163.052,3.662,3.662,0,0,0-1.73,1.439,4.428,4.428,0,0,0-.84,2.315,4.256,4.256,0,0,0,.58,2.36,6.59,6.59,0,0,0,2.037,2.12,6.864,6.864,0,0,0,2.667,1.2,4.119,4.119,0,0,0,2.4-.224,4.37,4.37,0,0,0,1.883-1.589,4.007,4.007,0,0,0,.773-2.288,3.789,3.789,0,0,0-.843-2.333Z" transform="translate(10.384 24.419)" fill="#f59401"/>
    <path id="Trazado_158" data-name="Trazado 158" d="M-266.994,361.279l10.062,8.716-1.058,1.219-10.062-8.715Z" transform="translate(14.584 20.788)" fill="#f59401"/>
    <path id="Trazado_159" data-name="Trazado 159" d="M-262.942,358.512a6.219,6.219,0,0,1,2.976-1.611,5.593,5.593,0,0,1,3.178.289,8.161,8.161,0,0,1,3.034,2.167,8.15,8.15,0,0,1,1.923,3.193,5.592,5.592,0,0,1,.038,3.191,6.2,6.2,0,0,1-1.835,2.839,6.211,6.211,0,0,1-2.976,1.611,5.592,5.592,0,0,1-3.178-.289,8.163,8.163,0,0,1-3.034-2.167,8.136,8.136,0,0,1-1.923-3.194,5.611,5.611,0,0,1-.04-3.191A6.208,6.208,0,0,1-262.942,358.512Zm1.029,1.111a4.361,4.361,0,0,0-1.318,2.082,4.117,4.117,0,0,0,.108,2.4,6.908,6.908,0,0,0,1.551,2.479,6.908,6.908,0,0,0,2.351,1.741,4.107,4.107,0,0,0,2.387.294,4.372,4.372,0,0,0,2.178-1.15,4.344,4.344,0,0,0,1.322-2.089,4.116,4.116,0,0,0-.112-2.4A6.915,6.915,0,0,0-255,360.507a6.967,6.967,0,0,0-2.351-1.741,4.148,4.148,0,0,0-2.38-.3A4.346,4.346,0,0,0-261.913,359.624Z" transform="translate(18.382 15.216)" fill="#f59401"/>
    <path id="Trazado_160" data-name="Trazado 160" d="M-252.884,355.3l.966,1.367-5.439,3.837-.964-1.367Z" transform="translate(26.66 13.372)" fill="#f59401"/>
  </g>
</svg>
