<svg id="Icon_awesome-instagram" data-name="Icon awesome-instagram" xmlns="http://www.w3.org/2000/svg" width="34.846" height="34.838" viewBox="0 0 34.846 34.838">
  <path id="Icon_awesome-instagram-2" data-name="Icon awesome-instagram" d="M17.421,10.725a8.932,8.932,0,1,0,8.932,8.932A8.918,8.918,0,0,0,17.421,10.725Zm0,14.739a5.807,5.807,0,1,1,5.807-5.807,5.818,5.818,0,0,1-5.807,5.807ZM28.8,10.359a2.083,2.083,0,1,1-2.083-2.083A2.079,2.079,0,0,1,28.8,10.359Zm5.916,2.114c-.132-2.791-.77-5.263-2.814-7.3S27.4,2.5,24.6,2.36c-2.876-.163-11.5-.163-14.374,0-2.783.132-5.255.77-7.3,2.806S.257,9.675.117,12.466c-.163,2.876-.163,11.5,0,14.374.132,2.791.77,5.263,2.814,7.3s4.509,2.674,7.3,2.814c2.876.163,11.5.163,14.374,0,2.791-.132,5.263-.77,7.3-2.814s2.674-4.509,2.814-7.3c.163-2.876.163-11.49,0-14.366ZM31,29.926a5.879,5.879,0,0,1-3.312,3.312c-2.293.91-7.735.7-10.269.7s-7.984.2-10.269-.7a5.879,5.879,0,0,1-3.312-3.312c-.91-2.293-.7-7.735-.7-10.269s-.2-7.984.7-10.269A5.879,5.879,0,0,1,7.152,6.076c2.293-.91,7.735-.7,10.269-.7s7.984-.2,10.269.7A5.879,5.879,0,0,1,31,9.388c.91,2.293.7,7.735.7,10.269S31.912,27.64,31,29.926Z" transform="translate(0.005 -2.238)" fill="#f3f3f3"/>
</svg>
